<svg width="888" height="450" viewBox="0 0 888 450" fill="none" xmlns="http://www.w3.org/2000/svg">
<g clip-path="url(#clip0_1284_17673)">
<rect width="888" height="450" fill="#FBF9F8"/>
<text fill="black" xml:space="preserve" style="white-space: pre" font-family="Oracle Sans" font-size="18" letter-spacing="0em"><tspan x="662" y="323.043">Fine-tune&#10;</tspan><tspan x="662" y="346.043">personalize&#10;</tspan><tspan x="662" y="369.043">marketing</tspan></text>
<text fill="black" xml:space="preserve" style="white-space: pre" font-family="Oracle Sans" font-size="18" letter-spacing="0em"><tspan x="96.1934" y="103.043">Improve product&#10;</tspan><tspan x="143.654" y="126.043">allocations</tspan></text>
<text fill="black" xml:space="preserve" style="white-space: pre" font-family="Oracle Sans" font-size="18" letter-spacing="0em"><tspan x="97.2474" y="328.043">Optimize pricing&#10;</tspan><tspan x="155.449" y="351.043">decisions</tspan></text>
<text fill="black" xml:space="preserve" style="white-space: pre" font-family="Oracle Sans" font-size="18" letter-spacing="0em"><tspan x="662" y="93.043">Reduce stockouts&#10;</tspan><tspan x="662" y="116.043">and the need for&#10;</tspan><tspan x="662" y="139.043">discounts</tspan></text>
<path d="M513.454 192.567H488.305C487.119 192.567 486.149 193.465 486.149 194.563V208.203C486.149 209.301 487.119 210.199 488.305 210.199H513.454C514.639 210.199 515.609 209.301 515.609 208.203V194.563C515.609 193.465 514.639 192.567 513.454 192.567ZM514.172 208.203C514.172 208.569 513.849 208.868 513.454 208.868H488.305C487.909 208.868 487.586 208.569 487.586 208.203V194.563C487.586 194.197 487.909 193.898 488.305 193.898H513.454C513.849 193.898 514.172 194.197 514.172 194.563V208.203ZM505.693 184.499L508.837 191.552H510.4L505.37 180.308C504.921 179.293 503.646 178.81 502.55 179.226L480.634 187.626C479.538 188.042 479.018 189.207 479.467 190.238L485.071 202.714V199.237L482.467 193.415L505.693 184.499ZM480.814 189.722C480.742 189.556 480.742 189.373 480.814 189.207C480.886 189.04 481.029 188.907 481.209 188.841L503.125 180.441C503.484 180.308 503.915 180.457 504.059 180.807L504.616 182.037L481.353 190.953L480.814 189.722ZM490.64 205.541H495.31V206.872H490.64V205.541ZM496.388 205.541H501.059V206.872H496.388V205.541ZM502.137 205.541H506.807V206.872H502.137V205.541ZM507.885 205.541H512.556V206.872H507.885V205.541ZM491.359 200.052H493.873C494.376 200.052 494.772 199.686 494.772 199.22V198.721H493.335V197.391H494.772V196.892C494.772 196.426 494.376 196.06 493.873 196.06H491.359C490.856 196.06 490.46 196.426 490.46 196.892V197.391H491.897V198.721H490.46V199.22C490.46 199.686 490.856 200.052 491.359 200.052Z" fill="#FBF9F8"/>
<path d="M390.077 182.989C386.88 179.012 381.97 176.579 376.684 176.31H375.952V191.481L390.559 183.594L390.077 182.989ZM377.345 189.215V177.636C381.666 178.056 385.648 180.053 388.416 183.191L377.345 189.215ZM389.88 186.665C389.773 186.497 389.666 186.329 389.559 186.161L389.202 185.624L374.88 193.109V178.156H374.166C364.148 178.156 356.023 185.792 356.023 195.223C356.023 204.638 364.148 212.273 374.184 212.273C384.22 212.273 392.327 204.638 392.327 195.206C392.327 192.203 391.488 189.266 389.88 186.665ZM373.452 210.948C364.505 210.579 357.452 203.664 357.434 195.24C357.434 186.849 364.63 179.952 373.452 179.516V210.948ZM374.88 210.948V195.693L388.63 203.144C385.755 207.776 380.577 210.713 374.88 210.948ZM389.291 201.953L375.345 194.384L388.702 187.437C390.148 189.82 390.898 192.505 390.898 195.24C390.898 197.556 390.345 199.855 389.291 201.953ZM363.469 193.948C363.487 192.74 364.505 191.766 365.791 191.749H366.309V190.407H367.737V191.749H369.88V193.092H365.791C365.291 193.109 364.898 193.478 364.898 193.948C364.916 194.401 365.309 194.77 365.791 194.77H368.095C369.38 194.77 370.416 195.744 370.416 196.952C370.416 198.16 369.38 199.133 368.095 199.133H367.737V200.476H366.309V199.133H363.63V197.791H368.095C368.595 197.791 368.987 197.422 368.987 196.952C368.987 196.482 368.595 196.113 368.095 196.113H365.791C364.523 196.113 363.487 195.139 363.469 193.948Z" fill="#FBF9F8"/>
<path d="M351.893 321.634V323.355H349.923V321.634H347.706V319.668H351.893C352.134 319.672 352.333 319.483 352.341 319.243C352.334 319 352.137 318.805 351.893 318.798H349.864C348.54 318.798 347.468 317.728 347.468 316.407C347.468 315.086 348.54 314.015 349.864 314.015H349.923V312.295H351.893V314.015H353.863V315.981H349.856C349.614 315.985 349.417 316.179 349.411 316.421C349.417 316.662 349.615 316.853 349.856 316.852H351.893C353.217 316.852 354.289 317.922 354.289 319.243C354.289 320.564 353.217 321.634 351.893 321.634ZM360.513 317.948C360.513 312.654 356.212 308.362 350.908 308.362C345.604 308.362 341.303 312.654 341.303 317.948C341.303 323.242 345.604 327.533 350.908 327.533C356.21 327.526 360.506 323.239 360.513 317.948ZM358.543 317.948C358.543 322.156 355.124 325.567 350.908 325.567C346.692 325.567 343.273 322.156 343.273 317.948C343.273 313.74 346.692 310.329 350.908 310.329C355.124 310.329 358.543 313.74 358.543 317.948ZM334.654 334.907H367.162V332.94H334.654V334.907ZM343.027 338.348H358.789V336.381H343.027V338.348ZM377.506 340.068V341.051L375.536 342.034H326.28L324.31 341.051V340.068L329.482 330.431V306.396C329.482 305.174 330.474 304.184 331.699 304.184H370.117C371.342 304.184 372.334 305.174 372.334 306.396V330.07L377.506 340.068ZM370.856 331.466H331.174L326.546 340.068H375.289L370.856 331.466ZM331.452 329.5H370.364V306.396C370.364 306.26 370.253 306.15 370.117 306.15H331.699C331.563 306.15 331.452 306.26 331.452 306.396V329.5Z" fill="#FBF9F8"/>
<path d="M406.836 379.758C406.836 395.733 419.705 408.602 435.68 408.602C438.564 408.602 441.337 408.158 444 407.381V438C326.406 438 231 342.594 231 225H261.619C260.842 222.338 260.398 219.564 260.398 216.68C260.398 200.705 273.267 187.836 289.242 187.836C305.217 187.836 318.086 200.705 318.086 216.68C318.086 219.564 317.642 222.338 316.866 225H346.375C346.375 278.916 390.084 322.625 444 322.625V352.134C441.337 351.358 438.564 350.914 435.68 350.914C419.705 350.914 406.836 363.783 406.836 379.758Z" fill="#467173"/>
<path d="M657 225C657 342.594 561.594 438 444 438V407.381C441.338 408.158 438.564 408.602 435.68 408.602C419.705 408.602 406.836 395.733 406.836 379.758C406.836 363.783 419.705 350.914 435.68 350.914C438.564 350.914 441.338 351.358 444 352.134V322.625C497.916 322.625 541.625 278.916 541.625 225H571.134C570.358 227.663 569.914 230.436 569.914 233.32C569.914 249.295 582.783 262.164 598.758 262.164C614.733 262.164 627.602 249.295 627.602 233.32C627.602 230.436 627.158 227.663 626.381 225H657Z" fill="#8F98B7"/>
<path d="M626.381 225C627.158 227.663 627.602 230.436 627.602 233.32C627.602 249.295 614.733 262.164 598.758 262.164C582.783 262.164 569.914 249.295 569.914 233.32C569.914 230.436 570.358 227.663 571.134 225H541.625C541.625 171.084 497.916 127.375 444 127.375V97.8656C446.663 98.6422 449.436 99.0859 452.32 99.0859C468.295 99.0859 481.164 86.2172 481.164 70.2422C481.164 54.2672 468.295 41.3984 452.32 41.3984C449.436 41.3984 446.663 41.8422 444 42.6188V12C561.594 12 657 107.406 657 225H626.381Z" fill="#81B2C3"/>
<path d="M481.164 70.2422C481.164 86.2172 468.295 99.0859 452.32 99.0859C449.436 99.0859 446.663 98.6422 444 97.8656V127.375C390.084 127.375 346.375 171.084 346.375 225H316.866C317.642 222.337 318.086 219.564 318.086 216.68C318.086 200.705 305.217 187.836 289.242 187.836C273.267 187.836 260.398 200.705 260.398 216.68C260.398 219.564 260.842 222.337 261.619 225H231C231 107.406 326.406 12 444 12V42.6188C446.663 41.8422 449.436 41.3984 452.32 41.3984C468.295 41.3984 481.164 54.2672 481.164 70.2422Z" fill="#C58C52"/>
<mask id="mask0_1284_17673" style="mask-type:alpha" maskUnits="userSpaceOnUse" x="231" y="187" width="213" height="251">
<path d="M406.836 379.758C406.836 395.733 419.705 408.602 435.68 408.602C438.564 408.602 441.337 408.158 444 407.381V438C326.406 438 231 342.594 231 225H261.619C260.842 222.338 260.398 219.564 260.398 216.68C260.398 200.705 273.267 187.836 289.242 187.836C305.217 187.836 318.086 200.705 318.086 216.68C318.086 219.564 317.642 222.338 316.866 225H346.375C346.375 278.916 390.084 322.625 444 322.625V352.134C441.337 351.358 438.564 350.914 435.68 350.914C419.705 350.914 406.836 363.783 406.836 379.758Z" fill="#D4CFCA"/>
</mask>
<g mask="url(#mask0_1284_17673)">
<path opacity="0.8" d="M441.793 436.477C441.883 436.7 441.99 436.884 442.081 437.108C442.824 436.457 443.28 435.176 443.933 434.302C445.776 431.954 447.39 429.923 448.206 427.042C448.994 424.334 447.886 419.43 447.289 416.59C444.663 404.483 434.427 396.684 423.349 392.262C412.153 387.789 401.016 391.97 390.331 395.746C386.272 397.191 382.088 398.49 377.796 398.959C371.755 399.602 366.058 397.161 361.199 393.742C359.239 392.349 356.577 390.747 355.226 388.692C353.289 385.832 351.381 381.277 349.971 378.597C347.953 374.733 344.402 369.889 343.75 365.549C343.333 362.833 343.499 360.274 342.796 357.573C340.38 348.233 334.75 340.099 330.84 331.318C328.131 325.267 324.337 319.904 320.336 314.591C315.085 307.635 308.678 301.753 302.197 295.932C295.329 289.714 288.166 284.292 280.236 279.465C273.183 275.198 265.667 271.794 258.252 268.156C254.957 266.514 251.74 264.906 248.311 263.575C243.277 261.65 237.702 260.554 232.385 259.615C217.596 257.017 201.774 255.962 187.127 259.978C176.015 263.017 169.804 272.307 165.096 282.104C163.876 284.626 162.695 287.166 161.419 289.711C160.55 291.415 159.328 293.291 158.789 295.091C157.508 299.71 158.695 304.971 160.099 309.402C161.123 312.656 162.34 314.7 164.975 316.798C167.751 319.002 169.816 321.778 173.462 322.602C179.066 323.848 184.702 319.157 186.054 313.829C186.596 311.478 185.916 308.833 186.071 306.408C186.296 302.951 186.248 300.023 188.476 297.102C192.435 291.876 201.14 289.79 207.036 287.748C210.536 286.525 213.785 285.563 217.505 285.126C220.43 284.81 223.39 284.74 226.293 284.368C229.005 284.007 231.721 283.417 234.507 283.318C239.793 283.137 245.055 284.745 250.005 286.542C253.27 287.71 256.732 288.639 259.931 289.963C262.72 291.158 266.727 292.551 269.037 294.648C270.942 296.387 271.465 298.641 272.318 300.991C273.336 303.826 273.796 306.007 272.268 308.814C270.535 311.993 266.903 312.33 263.597 312.667C261.109 312.94 258.868 313.503 256.454 314.037C251.905 314.996 246.902 315.714 242.929 318.257C240.372 319.884 236.204 322.344 235.776 325.622C235.419 328.191 237.728 329.641 239.487 331.179C241.043 332.538 242.896 333.424 244.345 334.599C246.441 336.327 248.757 338.519 251.044 340.237C253.729 342.217 257.5 343.51 260.498 344.978C261.918 345.679 263.355 346.34 264.775 347.041C266.588 347.91 268.413 348.969 270.26 349.759C271.321 350.214 272.335 350.233 273.39 350.593C275.343 351.245 277.068 352.537 278.987 353.267C280.474 353.812 281.915 353.921 283.352 354.583C286.877 356.231 290.747 356.966 294.061 359.216C300.245 363.341 304.977 369.337 310.485 374.28C313.846 377.289 316.902 379.705 319.341 383.565C320.867 385.972 321.533 387.457 322.292 390.135C322.814 392.066 323.609 393.791 324.427 395.572C325.375 397.593 326.278 397.98 328.133 399.512C331.274 402.057 334.868 404.197 337.886 406.92C344.356 412.875 351.154 418.279 359.477 421.752C363.109 423.261 367.248 424.019 371.079 425.06C374.855 426.124 378.825 426.625 382.728 426.958C386.591 427.275 390.51 427.569 394.061 428.398C395.828 428.832 397.569 430.085 399.342 430.614C403.376 431.834 406.903 434.129 410.787 435.701C413.649 436.834 416.661 437.617 419.574 438.634C422.62 439.662 425.606 440.941 428.764 441.601C431.148 442.115 434.493 443.317 436.366 441.766C437.747 440.604 438.825 439.497 440.359 438.631C442.06 437.699 443.55 437.368 441.793 436.477Z" fill="#4F7D7B"/>
</g>
<mask id="mask1_1284_17673" style="mask-type:alpha" maskUnits="userSpaceOnUse" x="406" y="225" width="251" height="213">
<path d="M657 225C657 342.594 561.594 438 444 438V407.381C441.338 408.158 438.564 408.602 435.68 408.602C419.705 408.602 406.836 395.733 406.836 379.758C406.836 363.783 419.705 350.914 435.68 350.914C438.564 350.914 441.338 351.358 444 352.134V322.625C497.916 322.625 541.625 278.916 541.625 225H571.134C570.358 227.663 569.914 230.436 569.914 233.32C569.914 249.295 582.783 262.164 598.758 262.164C614.733 262.164 627.602 249.295 627.602 233.32C627.602 230.436 627.158 227.663 626.381 225H657Z" fill="#BCB6B1"/>
</mask>
<g mask="url(#mask1_1284_17673)">
<path opacity="0.75" d="M642.902 205.496C642.861 205.229 642.858 204.99 642.816 204.723C643.906 204.921 645.082 205.891 646.213 206.356C649.338 207.555 652.059 208.58 654.502 210.882C656.818 213.034 658.575 218.389 659.635 221.465C664.076 234.623 658.717 248.018 650.604 258.648C642.407 269.394 629.286 271.781 616.834 274.297C612.097 275.243 607.325 276.4 602.925 278.42C596.744 281.278 592.668 286.904 589.961 292.99C588.877 295.459 587.238 298.532 587.121 301.287C586.903 305.153 587.689 310.633 587.875 314.023C588.157 318.901 587.528 325.605 589.399 330.155C590.561 333.009 592.193 335.375 593.071 338.378C596.122 348.754 595.387 359.819 596.678 370.517C597.555 377.898 596.991 385.24 596.2 392.654C595.151 402.368 592.372 411.715 589.488 421.045C586.459 430.979 582.687 440.318 577.837 449.525C573.507 457.689 568.235 465.289 563.195 473.056C560.969 476.533 558.801 479.931 556.267 483.185C552.533 487.934 547.8 492.197 543.225 496.16C530.492 507.17 515.878 517.291 499.476 521.856C487.037 525.328 475.714 519.965 465.547 513.249C462.922 511.524 460.324 509.761 457.632 508.047C455.815 506.908 453.559 505.806 452.006 504.384C448.115 500.678 446.229 494.933 445.029 489.863C444.142 486.143 444.136 483.476 445.464 479.942C446.866 476.224 447.255 472.364 450.289 469.474C454.963 465.049 463.085 466.319 467.452 470.666C469.327 472.617 470.194 475.553 471.74 477.797C473.945 480.992 475.584 483.836 479.409 485.365C486.225 488.114 495.8 485.111 502.648 483.683C506.719 482.845 510.398 481.901 514.228 480.18C517.224 478.801 520.112 477.165 523.118 475.853C525.935 474.639 528.888 473.643 531.625 472.135C536.815 469.268 540.952 464.692 544.68 460.115C547.149 457.111 549.945 454.226 552.26 451.111C554.256 448.356 557.309 444.71 558.324 441.363C559.157 438.594 558.362 436.124 557.831 433.373C557.178 430.06 556.366 427.696 553.281 425.875C549.783 423.814 546.096 425.58 542.721 427.159C540.171 428.328 537.691 429.076 535.061 429.951C530.133 431.647 524.906 433.836 519.621 433.675C516.224 433.581 510.798 433.614 508.501 430.707C506.679 428.44 508.065 425.716 508.872 423.224C509.587 421.021 510.86 419.103 511.578 417.138C512.6 414.269 513.567 410.828 514.778 407.86C516.222 404.409 519.106 400.995 521.144 397.857C522.108 396.366 523.109 394.902 524.072 393.411C525.317 391.532 526.463 389.463 527.784 387.639C528.543 386.592 529.508 385.989 530.316 385.036C531.82 383.285 532.735 381.049 534.162 379.243C535.279 377.863 536.602 376.928 537.604 375.465C540.046 371.85 543.347 368.916 545.24 364.844C548.815 357.317 549.917 348.826 552.371 340.9C553.873 336.071 555.423 331.987 555.548 326.871C555.631 323.677 555.417 321.865 554.606 318.851C553.997 316.694 553.769 314.577 553.531 312.392C553.28 309.903 553.927 309.01 554.829 306.469C556.386 302.212 558.612 298.086 559.948 293.729C562.745 284.277 566.176 275.165 572.185 267.034C574.81 263.493 578.356 260.382 581.443 257.175C584.463 253.979 587.994 251.212 591.557 248.645C595.091 246.117 598.692 243.579 601.631 240.738C603.081 239.304 604.035 237.096 605.437 235.567C608.615 232.071 610.688 227.833 613.52 224.087C615.621 221.349 618.068 218.862 620.285 216.208C622.624 213.465 624.761 210.516 627.419 208.064C629.417 206.198 631.943 203.117 634.637 203.531C636.635 203.854 638.309 204.298 640.283 204.248C642.456 204.166 644.08 203.627 642.902 205.496Z" fill="#7C85A4"/>
</g>
<mask id="mask2_1284_17673" style="mask-type:alpha" maskUnits="userSpaceOnUse" x="444" y="12" width="213" height="251">
<path d="M626.381 225C627.158 227.663 627.602 230.436 627.602 233.32C627.602 249.295 614.733 262.164 598.758 262.164C582.783 262.164 569.914 249.295 569.914 233.32C569.914 230.436 570.358 227.663 571.134 225H541.625C541.625 171.084 497.916 127.375 444 127.375V97.8656C446.663 98.6422 449.436 99.0859 452.32 99.0859C468.295 99.0859 481.164 86.2172 481.164 70.2422C481.164 54.2672 468.295 41.3984 452.32 41.3984C449.436 41.3984 446.663 41.8422 444 42.6188V12C561.594 12 657 107.406 657 225H626.381Z" fill="#D4CFCA"/>
</mask>
<g mask="url(#mask2_1284_17673)">
<path opacity="0.75" d="M663.97 154.028C664.081 154.301 664.212 154.526 664.322 154.799C665.231 154.004 665.788 152.438 666.587 151.37C668.839 148.5 670.812 146.017 671.808 142.496C672.771 139.187 671.418 133.193 670.688 129.722C667.479 114.924 654.968 105.392 641.427 99.987C627.743 94.5202 614.131 99.6309 601.073 104.245C596.111 106.012 590.998 107.6 585.751 108.173C578.368 108.958 571.405 105.976 565.467 101.796C563.071 100.093 559.817 98.1358 558.166 95.6235C555.798 92.1281 553.466 86.5609 551.744 83.2852C549.277 78.5627 544.936 72.6428 544.14 67.3385C543.63 64.0182 543.833 60.8905 542.973 57.5898C540.021 46.1735 533.14 36.233 528.36 25.5004C525.05 18.1042 520.413 11.5497 515.522 5.05595C509.105 -3.44542 501.273 -10.6351 493.353 -17.75C484.958 -25.35 476.203 -31.9764 466.512 -37.8759C457.891 -43.0911 448.705 -47.2515 439.642 -51.6977C435.614 -53.7049 431.682 -55.6709 427.491 -57.2968C421.339 -59.6502 414.525 -60.9898 408.027 -62.1377C389.951 -65.3122 370.613 -66.602 352.711 -61.6931C339.13 -57.9795 331.538 -46.6243 325.784 -34.651C324.293 -31.5675 322.85 -28.4635 321.29 -25.3529C320.228 -23.2702 318.734 -20.9773 318.076 -18.7776C316.51 -13.1318 317.961 -6.70135 319.676 -1.28567C320.928 2.69081 322.415 5.18899 325.636 7.75294C329.029 10.4468 331.553 13.8404 336.009 14.8469C342.858 16.3705 349.747 10.6361 351.399 4.12498C352.062 1.25065 351.231 -1.98189 351.421 -4.94603C351.696 -9.17077 351.637 -12.7489 354.36 -16.3199C359.199 -22.7071 369.838 -25.256 377.045 -27.7524C381.322 -29.2476 385.293 -30.4233 389.84 -30.9569C393.415 -31.343 397.033 -31.4292 400.58 -31.8835C403.895 -32.3249 407.215 -33.0456 410.62 -33.1664C417.08 -33.3884 423.512 -31.4228 429.562 -29.2264C433.553 -27.7987 437.784 -26.6633 441.694 -25.0449C445.103 -23.5846 450 -21.8819 452.823 -19.3189C455.152 -17.1934 455.791 -14.4385 456.834 -11.5666C458.077 -8.10127 458.64 -5.43507 456.773 -2.00497C454.654 1.8811 450.216 2.29229 446.175 2.70449C443.134 3.03748 440.395 3.72563 437.444 4.37916C431.885 5.55078 425.769 6.42794 420.914 9.53689C417.789 11.5258 412.694 14.5319 412.171 18.5379C411.735 21.6786 414.556 23.451 416.706 25.3306C418.609 26.9916 420.873 28.0742 422.645 29.5099C425.207 31.6224 428.037 34.3012 430.832 36.4006C434.114 38.8216 438.723 40.4009 442.387 42.1959C444.122 43.0522 445.879 43.8609 447.615 44.7172C449.831 45.7793 452.061 47.0731 454.318 48.0398C455.615 48.5951 456.855 48.6187 458.144 49.0582C460.531 49.8549 462.639 51.4346 464.984 52.3266C466.802 52.9923 468.563 53.1263 470.319 53.935C474.628 55.9497 479.358 56.8478 483.408 59.5978C490.966 64.64 496.75 71.9675 503.482 78.0094C507.59 81.6865 511.326 84.6402 514.306 89.3572C516.172 92.2993 516.986 94.1143 517.913 97.3879C518.551 99.7476 519.523 101.856 520.523 104.033C521.681 106.503 522.785 106.976 525.052 108.849C528.891 111.96 533.283 114.574 536.972 117.903C544.88 125.181 553.189 131.786 563.362 136.031C567.8 137.875 572.859 138.801 577.542 140.074C582.157 141.374 587.01 141.986 591.779 142.394C596.501 142.781 601.291 143.141 605.631 144.153C607.79 144.684 609.919 146.216 612.086 146.862C617.016 148.354 621.327 151.159 626.074 153.079C629.572 154.465 633.254 155.422 636.813 156.664C640.537 157.921 644.187 159.484 648.046 160.291C650.96 160.919 655.048 162.388 657.337 160.492C659.025 159.072 660.343 157.719 662.217 156.661C664.297 155.521 666.118 155.117 663.97 154.028Z" fill="#6BA1B6"/>
</g>
<mask id="mask3_1284_17673" style="mask-type:alpha" maskUnits="userSpaceOnUse" x="231" y="12" width="251" height="213">
<path d="M481.164 70.2422C481.164 86.2172 468.295 99.0859 452.32 99.0859C449.436 99.0859 446.663 98.6422 444 97.8656V127.375C390.084 127.375 346.375 171.084 346.375 225H316.866C317.642 222.337 318.086 219.564 318.086 216.68C318.086 200.705 305.217 187.836 289.242 187.836C273.267 187.836 260.398 200.705 260.398 216.68C260.398 219.564 260.842 222.337 261.619 225H231C231 107.406 326.406 12 444 12V42.6188C446.663 41.8422 449.436 41.3984 452.32 41.3984C468.295 41.3984 481.164 54.2672 481.164 70.2422Z" fill="#BCB6B1"/>
</mask>
<g mask="url(#mask3_1284_17673)">
<path opacity="0.75" d="M499.036 -87.2383C499.09 -87.499 499.169 -87.7207 499.222 -87.9813C500.161 -87.4238 500.913 -86.1233 501.798 -85.3051C504.271 -83.1237 506.432 -81.2409 507.895 -78.275C509.294 -75.4913 509.075 -69.9415 508.996 -66.7369C508.572 -53.0581 499.017 -42.5321 487.869 -35.5057C476.603 -28.4009 463.666 -30.7093 451.302 -32.6677C446.602 -33.4231 441.797 -33.9958 437.04 -33.6438C430.348 -33.13 424.649 -29.3364 420.057 -24.6471C418.206 -22.7401 415.636 -20.4663 414.58 -17.9623C413.05 -14.467 411.891 -9.13597 410.897 -5.94174C409.48 -1.3395 406.594 4.63463 406.756 9.47994C406.848 12.5148 407.541 15.2614 407.319 18.3362C406.569 28.9678 402.085 38.9324 399.598 49.2562C397.869 56.3734 394.823 62.9602 391.542 69.5346C387.234 78.144 381.453 85.8197 375.581 93.4435C369.367 101.576 362.673 108.903 355.027 115.737C348.221 121.787 340.739 126.993 333.413 132.432C330.162 134.877 326.991 137.27 323.532 139.403C318.45 142.504 312.614 144.813 307.026 146.9C291.481 152.688 274.505 157.009 257.788 155.583C245.107 154.512 236.496 145.665 229.416 135.967C227.585 133.471 225.793 130.949 223.896 128.441C222.61 126.764 220.906 124.971 219.96 123.124C217.641 118.363 217.876 112.409 218.511 107.314C218.971 103.574 219.883 101.11 222.325 98.3021C224.898 95.351 226.585 91.9203 230.381 90.2944C236.218 87.8161 243.282 91.7823 245.82 97.2984C246.881 99.7443 246.672 102.754 247.327 105.357C248.265 109.067 248.8 112.257 251.807 114.984C257.156 119.867 267.03 120.387 273.846 121.423C277.893 122.05 281.615 122.443 285.744 122.171C288.985 121.927 292.214 121.41 295.442 121.232C298.461 121.08 301.53 121.176 304.576 120.724C310.355 119.861 315.749 117.059 320.765 114.114C324.079 112.189 327.653 110.486 330.862 108.406C333.653 106.548 337.726 104.231 339.815 101.49C341.536 99.2184 341.651 96.6649 342.107 93.9412C342.644 90.6571 342.706 88.1949 340.484 85.4526C337.962 82.3464 333.95 82.7094 330.291 83.0062C327.533 83.2093 324.986 83.0471 322.256 82.9506C317.122 82.8217 311.543 83.0457 306.717 81.0793C303.613 79.8244 298.591 77.9888 297.469 74.5139C296.566 71.7939 298.783 69.7556 300.385 67.7321C301.804 65.9435 303.638 64.6097 304.978 63.0428C306.908 60.7447 308.984 57.8992 311.124 55.5745C313.643 52.884 317.481 50.7239 320.442 48.5272C321.845 47.4812 323.273 46.4741 324.675 45.4281C326.471 44.1205 328.241 42.6044 330.088 41.3748C331.15 40.6684 332.248 40.4439 333.322 39.8417C335.312 38.7419 336.927 36.9918 338.865 35.814C340.371 34.924 341.915 34.5159 343.343 33.5088C346.842 31.011 350.899 29.4365 354.047 26.3274C359.938 20.6054 363.875 13.1433 368.867 6.66829C371.915 2.72581 374.751 -0.512655 376.626 -5.19434C377.801 -8.11552 378.226 -9.86224 378.514 -12.9242C378.693 -15.1262 379.211 -17.1597 379.743 -19.2584C380.367 -21.644 381.271 -22.2457 382.978 -24.2826C385.879 -27.6776 389.354 -30.7224 392.087 -34.2863C397.921 -42.0533 404.222 -49.2875 412.567 -54.7298C416.209 -57.0978 420.554 -58.7513 424.508 -60.6512C428.396 -62.5639 432.608 -63.9044 436.781 -65.0494C440.914 -66.1682 445.112 -67.2742 448.803 -68.8868C450.636 -69.7125 452.276 -71.4236 454.096 -72.3536C458.234 -74.4884 461.605 -77.6893 465.509 -80.1753C468.391 -81.981 471.506 -83.4356 474.466 -85.1243C477.569 -86.8525 480.557 -88.8408 483.855 -90.1918C486.341 -91.2278 489.733 -93.2043 492.079 -91.8952C493.813 -90.9101 495.207 -89.924 497.046 -89.2909C499.081 -88.6192 500.766 -88.5588 499.036 -87.2383Z" fill="#D39F5D"/>
</g>
<circle cx="444" cy="224" r="106" fill="#FBF9F8"/>
<text fill="#161513" xml:space="preserve" style="white-space: pre" font-family="Oracle Sans" font-size="24" font-weight="600" letter-spacing="0em"><tspan x="367.441" y="202.224">How Retailers&#10;</tspan><tspan x="348.914" y="233.224">Can Benefit from&#10;</tspan><tspan x="363.609" y="264.224">Data Analytics</tspan></text>
<path d="M560.352 347.253C560.352 349.088 558.852 350.589 557.019 350.589H556.547V352.536H554.326V350.589H550.994V348.365H557.019C557.63 348.365 558.13 347.865 558.13 347.253C558.13 346.641 557.63 346.141 557.019 346.141H553.854C552.021 346.141 550.522 344.667 550.522 342.832C550.55 340.997 552.021 339.496 553.854 339.468H554.326V337.521H556.547V339.468H559.879V341.692H553.854C553.243 341.72 552.743 342.22 552.743 342.832C552.743 343.444 553.243 343.916 553.854 343.916H557.019C558.852 343.916 560.352 345.418 560.352 347.253ZM554.326 329.736H541.276V331.961H554.326V329.736ZM541.276 326.4H560.435V324.175H541.276V326.4ZM574.874 323.981V365.326H536V315H565.905L574.874 323.981ZM565.71 324.175H571.903L565.71 317.975V324.175ZM572.652 326.4H563.489V317.224H538.221V363.101H572.652V326.4ZM536 368.106L538.221 369.218H572.652L574.874 368.106V366.994H536V368.106Z" fill="white"/>
<path d="M580.886 112.058H541.201C539.33 112.058 537.799 113.593 537.799 115.469V138.784C537.799 140.66 539.33 142.195 541.201 142.195H580.886C582.757 142.195 584.287 140.66 584.287 138.784V115.469C584.287 113.593 582.757 112.058 580.886 112.058ZM582.02 138.784C582.02 139.409 581.509 139.921 580.886 139.921H541.201C540.577 139.921 540.067 139.409 540.067 138.784V115.469C540.067 114.844 540.577 114.332 541.201 114.332H580.886C581.509 114.332 582.02 114.844 582.02 115.469V138.784ZM568.64 98.2681L573.601 110.323H576.067L568.13 91.1033C567.421 89.3689 565.409 88.5444 563.68 89.2552L529.097 103.613C527.368 104.324 526.546 106.314 527.254 108.077L536.098 129.401V123.459L531.988 113.508L568.64 98.2681ZM529.38 107.196C529.267 106.911 529.267 106.599 529.38 106.314C529.494 106.03 529.721 105.803 530.004 105.689L564.587 91.3307C565.154 91.1033 565.834 91.3592 566.061 91.9562L566.939 94.0601L530.231 109.3L529.38 107.196ZM544.886 134.235H552.256V136.509H544.886V134.235ZM553.957 134.235H561.327V136.509H553.957V134.235ZM563.027 134.235H570.398V136.509H563.027V134.235ZM572.098 134.235H579.468V136.509H572.098V134.235ZM546.02 124.852H549.988C550.782 124.852 551.405 124.226 551.405 123.43V122.577H549.138V120.303H551.405V119.45C551.405 118.654 550.782 118.028 549.988 118.028H546.02C545.226 118.028 544.602 118.654 544.602 119.45V120.303H546.87V122.577H544.602V123.43C544.602 124.226 545.226 124.852 546.02 124.852Z" fill="white"/>
<path d="M362.737 96.3994C357.693 89.6113 349.944 85.4583 341.603 85H340.447V110.892L363.498 97.4306L362.737 96.3994ZM342.645 107.026V87.2627C349.465 87.9788 355.749 91.3871 360.116 96.7432L342.645 107.026ZM362.427 102.672C362.258 102.386 362.089 102.099 361.92 101.813L361.356 100.896L338.757 113.67V88.1506H337.63C321.821 88.1506 309 101.183 309 117.279C309 133.347 321.821 146.379 337.658 146.379C353.494 146.379 366.287 133.347 366.287 117.251C366.287 112.124 364.963 107.111 362.427 102.672ZM336.502 144.117C322.385 143.487 311.254 131.686 311.226 117.308C311.226 102.987 322.582 91.2153 336.502 90.4706V144.117ZM338.757 144.117V118.081L360.454 130.798C355.918 138.703 347.746 143.716 338.757 144.117ZM361.497 128.765L339.489 115.847L360.567 103.99C362.85 108.057 364.033 112.639 364.033 117.308C364.033 121.26 363.16 125.184 361.497 128.765ZM320.751 115.103C320.779 113.04 322.385 111.379 324.414 111.35H325.231V109.059H327.485V111.35H330.867V113.642H324.414C323.625 113.67 323.005 114.301 323.005 115.103C323.033 115.876 323.653 116.506 324.414 116.506H328.049C330.078 116.506 331.712 118.167 331.712 120.229C331.712 122.292 330.078 123.953 328.049 123.953H327.485V126.244H325.231V123.953H321.004V121.661H328.049C328.838 121.661 329.458 121.031 329.458 120.229C329.458 119.427 328.838 118.797 328.049 118.797H324.414C322.413 118.797 320.779 117.136 320.751 115.103Z" fill="white"/>
<path d="M335.826 337.809V339.762H333.553V337.809H330.996V335.577H335.826C336.104 335.582 336.334 335.367 336.343 335.094C336.335 334.818 336.108 334.596 335.826 334.589H333.485C331.958 334.589 330.72 333.374 330.72 331.874C330.72 330.375 331.958 329.16 333.485 329.16H333.553V327.207H335.826V329.16H338.1V331.392H333.476C333.196 331.396 332.97 331.616 332.962 331.891C332.97 332.164 333.198 332.381 333.476 332.379H335.826C337.353 332.379 338.591 333.595 338.591 335.094C338.591 336.593 337.353 337.809 335.826 337.809ZM345.772 333.624C345.772 327.614 340.81 322.743 334.69 322.743C328.569 322.743 323.607 327.614 323.607 333.624C323.607 339.633 328.569 344.505 334.69 344.505C340.807 344.497 345.764 339.63 345.772 333.624ZM343.499 333.624C343.499 338.401 339.555 342.273 334.69 342.273C329.824 342.273 325.881 338.401 325.881 333.624C325.881 328.847 329.824 324.975 334.69 324.975C339.555 324.975 343.499 328.847 343.499 333.624ZM315.935 352.875H353.444V350.643H315.935V352.875ZM325.596 356.781H343.783V354.549H325.596V356.781ZM365.379 358.734V359.85L363.106 360.966H306.273L304 359.85V358.734L309.967 347.794V320.511C309.967 319.124 311.112 318 312.525 318H356.854C358.267 318 359.412 319.124 359.412 320.511V347.384L365.379 358.734ZM357.707 348.969H311.92L306.58 358.734H362.822L357.707 348.969ZM312.241 346.737H357.139V320.511C357.139 320.357 357.011 320.232 356.854 320.232H312.525C312.368 320.232 312.241 320.357 312.241 320.511V346.737Z" fill="white"/>
<path d="M-178.295 437.338C-173.705 432.865 -170.857 426.849 -166.188 422.455C-161.836 418.398 -157.514 414.451 -151.995 412.235C-146.99 410.236 -140.492 409.848 -135.111 410.046C-130.383 410.224 -115.26 415.52 -110.849 417.282C-89.8012 425.673 -79.0695 429.857 -57.5073 436.804C-52.7993 438.328 -48.0121 439.812 -43.0666 439.951C-35.7672 440.149 -28.7446 437.378 -21.9991 434.607C-3.34486 426.948 15.9622 418.774 36.1 419.764C54.2399 420.654 71.0939 428.927 87.3348 437.022C104.09 445.373 142.16 459.411 140.973 464.458C139.786 469.505 134.247 463.271 122.665 464.888C74.704 471.584 51.5197 473.938 17.2379 472.671C-26.4204 471.068 -70.5931 467.532 -114.311 467.353C-135.774 467.274 -148.335 464.888 -175.149 460.791C-185.673 459.603 -196.197 458.238 -206.701 456.813C-209.609 456.417 -217.977 456.991 -213.902 452.894C-211.588 450.559 -205.515 449.629 -202.429 448.679C-193.922 446.066 -184.843 443.711 -178.295 437.338Z" fill="#F1EFED"/>
<path d="M626.041 -9.86011C626.23 2.24027 656.415 20.1028 690.197 17.3352C721.132 14.7982 736.35 32.1326 753.798 48.972C769.255 63.9071 786.534 69.9978 806.556 49.9219C826.818 29.6202 843.199 54.6225 862.747 55.2274C873.273 55.5095 883.769 53.9813 893.779 50.7089C894.092 50.6081 894.716 50.8892 895.023 50.7891C895.33 50.6891 895.798 50.0354 896.082 49.9438C898.222 49.2154 899.807 48.6046 901.918 47.7343C902.084 47.6682 902.674 47.75 902.84 47.6839C903.171 47.5461 903.317 46.8142 903.631 46.6784C904.078 46.4863 904.309 46.7265 904.774 46.5438C905.132 46.3855 906.329 46.3608 906.682 46.2146C907.128 46.0111 906.739 45.6617 907.172 45.4538C909.259 44.4759 911.335 43.4354 913.399 42.3323C913.776 42.1311 914.774 42.2403 915.144 42.0398C915.144 42.0398 915.346 40.7026 915.751 41.0443C916.157 41.386 918.966 39.5036 919.524 39.1764C921.754 37.8911 921.87 37.4416 924.072 36.0201C924.928 35.466 927.808 34.5227 928.664 33.9687C929.374 33.5073 930.243 32.6204 931.271 31.8021C931.932 31.2594 933.626 30.9787 933.236 30.2749C932.971 29.8004 935.135 29.3772 935.799 28.9155C937.7 27.5876 939.023 26.2753 941.004 24.7404C942.315 23.7202 943.068 24.0616 944.342 23.0167C945.32 22.2216 946.771 19.9761 947.779 19.2356C948.381 18.787 948.986 18.0185 949.902 18.0733C950.328 18.093 950.165 17.3974 950.435 17.0866C953.018 14.0686 955.687 11.4415 958.518 8.60938C959.43 7.69422 962.832 6.5616 963.709 5.64474C964.828 4.47272 964.05 3.62284 965.106 2.45248C965.926 1.54235 967.206 0.595597 967.976 -0.291281C968.538 -1.0467 969.058 -1.83159 969.536 -2.6426C970.375 -3.79313 972.116 -3.91672 971.98 -4.67371C971.873 -5.2422 972.308 -5.57824 972.528 -6.3712C972.895 -7.68134 973.66 -7.83521 974.2 -8.56132C974.345 -8.75853 974.182 -9.50068 974.635 -9.1472C975.363 -8.57617 975.718 -10.6345 976.234 -11.3694C976.452 -11.6798 977.134 -11.9926 977.341 -12.3017C977.548 -12.6108 977.362 -13.0074 977.604 -13.3613C978.375 -14.6602 979.302 -15.8586 980.366 -16.9292C980.673 -17.2268 980.46 -17.8526 980.672 -18.2147C980.885 -18.5768 981.455 -18.609 981.67 -18.9946C981.804 -19.237 981.609 -19.8534 981.738 -20.0894C982.817 -22.047 983.08 -23.8505 984.499 -25.7261C984.83 -26.166 985.33 -26.5445 985.508 -27.0071C985.648 -27.3897 985.138 -28.3235 985.503 -28.3257C985.868 -28.328 985.762 -29.0769 985.875 -29.4447C986.103 -30.1689 985.886 -30.4862 986.044 -31.1672C986.08 -31.2994 986.548 -31.8077 986.53 -31.9568C986.905 -33.6921 986.769 -36.3726 986.993 -36.736C987.699 -37.8825 986.604 -39.4507 986.036 -40.5402C985.877 -40.8528 986.037 -41.3191 985.83 -41.597C985.705 -41.774 985.23 -41.7704 985.097 -41.9175C983.809 -43.3117 982.6 -44.3724 980.605 -43.8935C980.244 -43.7497 979.864 -43.6599 979.478 -43.6271C978.822 -43.8755 978.428 -43.1432 977.891 -42.7314C976.8 -42.0719 975.634 -41.5446 974.419 -41.1605C973.976 -40.992 972.932 -41.1423 972.567 -40.7972C971.892 -40.1365 970.085 -39.5345 968.427 -39.0022C968.035 -38.8806 968.008 -38.6217 967.604 -38.5045C967.375 -38.4367 966.77 -38.4993 966.535 -38.4309C964.938 -37.9698 963.077 -38.0239 961.407 -37.2462C960.732 -36.9227 959.316 -37.1918 958.674 -36.8315C957.636 -36.2502 956.265 -36.67 955.001 -36.5328C951.979 -36.212 950.784 -36.6699 948.552 -36.7211C947.501 -36.7426 945.972 -36.4871 944.854 -36.4834C943.446 -36.4804 942.454 -36.7356 941.179 -36.8411C940.746 -36.8773 940.399 -37.6094 940.077 -37.2926C939.755 -36.9757 939.103 -37.4918 938.632 -37.0586C938.454 -36.8982 938.151 -37.1124 937.911 -37.1364C934.475 -37.5224 931.06 -38.0328 927.582 -38.6289C926.494 -38.8146 925.065 -39.7796 923.945 -39.6478C922.727 -39.4283 921.472 -39.5373 920.309 -39.9637C919.171 -40.4748 918.32 -40.177 917.379 -40.537C914.892 -41.4821 913.518 -41.2913 911.513 -41.683C911.027 -41.7769 909.874 -41.8214 909.759 -42.3076C909.677 -42.6583 908.543 -42.2051 907.832 -42.3887C905.326 -43.0469 903.595 -43.9183 900.862 -43.9976C900.455 -44.0078 899.653 -43.9366 899.374 -43.9909C899.226 -44.0143 898.905 -44.3775 898.746 -44.4052C896.08 -44.8992 893.663 -44.8995 890.923 -45.9775C890.315 -46.2198 889.471 -45.8589 889.011 -45.9211C888.365 -46.0019 886.71 -46.179 886.177 -46.5696C885.644 -46.9602 885.185 -46.3773 884.228 -46.4855C880.208 -46.9189 876.256 -47.1162 871.735 -48.0079C871.017 -48.1501 870.321 -48.597 868.85 -48.2494C867.548 -47.9335 863.254 -48.4799 860.368 -48.6284C859.505 -48.6722 857.897 -48.4015 857.012 -48.4368C856.127 -48.4721 854.798 -48.0426 854.463 -48.9271C854.293 -49.3837 851.919 -48.6277 850.739 -48.6631C845.408 -48.8086 840.505 -49.9924 834.696 -49.1808C834.29 -49.133 832.913 -48.6688 832.682 -49.1065C832.451 -49.5442 831.727 -48.8545 831.373 -48.8536C822.549 -48.7971 816.75 -48.0913 807.212 -48.3344C805.033 -48.3859 799.8 -48.7346 798.38 -48.5384C796.099 -48.2235 795.087 -47.8138 792.909 -47.7028C787.76 -47.4395 785.145 -47.3003 779.971 -46.9528C779.52 -46.8996 776.916 -46.9651 776.462 -46.9291C775.909 -46.7604 775.339 -46.6505 774.762 -46.6012C770.294 -46.6564 765.862 -45.9546 761.455 -45.587C760.465 -45.5201 759.472 -45.5216 758.482 -45.5915C757.98 -45.6197 757.58 -45.0843 757.236 -45.4449C756.979 -45.711 756.22 -46.1505 756.009 -46.0211C755.314 -45.5732 754.344 -45.796 753.426 -45.717C751.029 -45.4989 748.828 -44.461 746.467 -44.2297C744.598 -44.0097 743.427 -44.5576 740.872 -44.2569C739.478 -44.0927 737.775 -43.5436 736.396 -43.3929C711.14 -40.5596 689.366 -36.695 676.378 -32.5686C654.983 -25.7324 625.82 -23.3051 626.041 -9.86011Z" fill="#F1EFED"/>
</g>
<defs>
<clipPath id="clip0_1284_17673">
<rect width="888" height="450" fill="white"/>
</clipPath>
</defs>
</svg>
